<svg width="17" height="12" viewBox="0 0 17 12" fill="none" xmlns="http://www.w3.org/2000/svg">
<path d="M2.75069 1.31333C4.31218 0.437778 6.19736 0 8.40625 0C10.6151 0 12.5003 0.437778 14.0618 1.31333C15.6248 2.18741 16.4062 3.24963 16.4062 4.5V8C16.4062 9.1037 15.6248 10.0467 14.0618 10.8289C12.5003 11.6096 10.6151 12 8.40625 12C6.19736 12 4.31218 11.6096 2.75069 10.8289C1.18773 10.0467 0.40625 9.1037 0.40625 8V4.5C0.40625 3.24963 1.18773 2.18741 2.75069 1.31333ZM3.15736 9.34444V7.87556C2.71884 7.66667 2.30181 7.4163 1.90625 7.12444V8C1.90625 8.43704 2.32329 8.88519 3.15736 9.34444ZM6.15736 10.3133V8.81333C5.46847 8.70815 4.80181 8.54148 4.15736 8.31333V9.81333C4.80181 10.0415 5.46847 10.2081 6.15736 10.3133ZM9.65736 10.4378V8.93778C9.1981 8.97926 8.78106 9 8.40625 9C8.03144 9 7.61514 8.97926 7.15736 8.93778V10.4378C7.5944 10.4793 8.01069 10.5 8.40625 10.5C8.80181 10.5 9.21884 10.4793 9.65736 10.4378ZM12.6574 9.81333V8.31333C12.0114 8.54148 11.3448 8.70815 10.6574 8.81333V10.3133C11.3448 10.2081 12.0114 10.0415 12.6574 9.81333ZM14.9062 8V7.12444C14.5107 7.4163 14.0944 7.66667 13.6574 7.87556V9.34444C14.49 8.88519 14.9062 8.43704 14.9062 8ZM3.81292 6.56222C5.08403 7.18741 6.61514 7.5 8.40625 7.5C10.1974 7.5 11.7285 7.18741 12.9996 6.56222C14.2707 5.93704 14.9062 5.24963 14.9062 4.5C14.9062 3.75037 14.2707 3.06296 12.9996 2.43778C11.7285 1.81259 10.1974 1.5 8.40625 1.5C6.61514 1.5 5.08403 1.81259 3.81292 2.43778C2.54181 3.06296 1.90625 3.75037 1.90625 4.5C1.90625 5.24963 2.54181 5.93704 3.81292 6.56222Z" fill="#808080"/>
</svg>
