<svg width="18" height="14" viewBox="0 0 18 14" fill="none" xmlns="http://www.w3.org/2000/svg">
<path d="M1 0.777771V13.2222M1 10.5555H17M17 13.2222V8.06666C17 7.07102 17 6.57315 16.8062 6.19288C16.6358 5.85839 16.3638 5.58639 16.0293 5.41599C15.6491 5.22222 15.1512 5.22222 14.1556 5.22222H8.11111V10.3131M4.55556 6.99999H4.56444M5.44444 6.99999C5.44444 7.49093 5.04647 7.88888 4.55556 7.88888C4.06464 7.88888 3.66667 7.49093 3.66667 6.99999C3.66667 6.50906 4.06464 6.1111 4.55556 6.1111C5.04647 6.1111 5.44444 6.50906 5.44444 6.99999Z" stroke="black" stroke-opacity="0.58" stroke-linecap="round" stroke-linejoin="round"/>
</svg>
