<svg width="12" height="16" viewBox="0 0 12 16" fill="none" xmlns="http://www.w3.org/2000/svg">
<path d="M1.75111 1.75111C2.91704 0.583704 4.33333 0 6 0C7.66667 0 9.0837 0.583704 10.2511 1.75111C11.417 2.91704 12 4.33333 12 6C12 6.33333 11.9896 6.62 11.9689 6.86C11.9481 7.09852 11.8756 7.38444 11.7511 7.71778C11.6252 8.05111 11.5104 8.33259 11.4067 8.56222C11.303 8.79185 11.0948 9.16667 10.7822 9.68667C10.4696 10.2081 10.1933 10.6563 9.95333 11.0311C9.71333 11.4059 9.31778 12.0311 8.76667 12.9067C8.21407 13.7807 7.71926 14.5726 7.28222 15.2822C6.99037 15.7607 6.56296 16 6 16C5.43704 16 5.00963 15.7607 4.71778 15.2822C4.28074 14.5726 3.78593 13.7807 3.23333 12.9067C2.68222 12.0311 2.28667 11.4059 2.04667 11.0311C1.80667 10.6563 1.53037 10.2081 1.21778 9.68667C0.906667 9.16667 0.698519 8.79185 0.593333 8.56222C0.48963 8.33259 0.375556 8.05111 0.251111 7.71778C0.125185 7.38444 0.0518519 7.09852 0.0311111 6.86C0.0103704 6.62 0 6.33333 0 6C0 4.33333 0.583704 2.91704 1.75111 1.75111ZM6 14.5C6.4163 13.8333 6.86444 13.1252 7.34444 12.3756C7.82296 11.6259 8.18222 11.0578 8.42222 10.6711C8.66222 10.2859 8.91704 9.87481 9.18667 9.43778C9.45778 9.00074 9.65111 8.67259 9.76667 8.45333C9.88074 8.23407 10 8 10.1244 7.75111C10.2504 7.50074 10.3341 7.29185 10.3756 7.12444C10.417 6.95852 10.4481 6.78667 10.4689 6.60889C10.4896 6.43259 10.5 6.22963 10.5 6C10.5 4.74963 10.0622 3.68741 9.18667 2.81333C8.31259 1.93778 7.25037 1.5 6 1.5C4.74963 1.5 3.68741 1.93778 2.81333 2.81333C1.93778 3.68741 1.5 4.74963 1.5 6C1.5 6.22963 1.51037 6.43259 1.53111 6.60889C1.55185 6.78667 1.58296 6.9637 1.62444 7.14C1.66593 7.31778 1.74963 7.53185 1.87556 7.78222C2 8.03111 2.12519 8.26519 2.25111 8.48444C2.37556 8.7037 2.57333 9.03185 2.84444 9.46889C3.11556 9.90593 3.37037 10.317 3.60889 10.7022C3.84889 11.0889 4.20296 11.6519 4.67111 12.3911C5.14074 13.1304 5.5837 13.8333 6 14.5ZM4.23333 7.76667C3.74444 7.2763 3.5 6.68741 3.5 6C3.5 5.31259 3.74444 4.7237 4.23333 4.23333C4.7237 3.74444 5.31259 3.5 6 3.5C6.68741 3.5 7.2763 3.74444 7.76667 4.23333C8.25556 4.7237 8.5 5.31259 8.5 6C8.5 6.68741 8.25556 7.2763 7.76667 7.76667C7.2763 8.25556 6.68741 8.5 6 8.5C5.31259 8.5 4.7237 8.25556 4.23333 7.76667Z" fill="#808080"/>
</svg>
