<svg width="19" height="16" viewBox="0 0 19 16" fill="none" xmlns="http://www.w3.org/2000/svg">
<path d="M16.875 6.25111L18.6883 7.71778C18.8128 7.82296 18.875 7.95852 18.875 8.12444C18.875 8.25037 18.8335 8.35482 18.7506 8.43778L18.4372 8.81333C18.3335 8.93778 18.2083 9 18.0617 9C17.9372 9 17.8335 8.95852 17.7506 8.87556L16.875 8.18667V14C16.875 14.2711 16.7757 14.5052 16.5772 14.7022C16.3802 14.9007 16.1461 15 15.875 15H11.875C11.6039 15 11.3698 14.9007 11.1728 14.7022C10.9743 14.5052 10.875 14.2711 10.875 14V10.7511H8.875V14C8.875 14.2711 8.77574 14.5052 8.57722 14.7022C8.38019 14.9007 8.14611 15 7.875 15H3.875C3.60389 15 3.36981 14.9007 3.17278 14.7022C2.97426 14.5052 2.875 14.2711 2.875 14V8.18667L2.03056 8.87556C1.92685 8.95852 1.81278 9 1.68833 9C1.54167 9 1.41648 8.93778 1.31278 8.81333L0.999444 8.43778C0.916481 8.33407 0.875 8.22963 0.875 8.12444C0.875 7.95852 0.937222 7.82296 1.06167 7.71778L8.75056 1.40667C9.08389 1.13556 9.4587 1 9.875 1C10.2913 1 10.6661 1.13556 10.9994 1.40667L15.375 5V3.25111C15.375 3.0837 15.4587 3 15.6261 3H16.6261C16.792 3 16.875 3.0837 16.875 3.25111V6.25111ZM12.375 13.5H15.375V6.93778L9.875 2.43778L4.375 6.93778V13.5H7.375V10.2511C7.375 9.98 7.47426 9.74518 7.67278 9.54667C7.86981 9.34963 8.10389 9.25111 8.375 9.25111H11.375C11.6461 9.25111 11.8802 9.34963 12.0772 9.54667C12.2757 9.74518 12.375 9.98 12.375 10.2511V13.5Z" fill="#808080"/>
</svg>
